HIERARCHY
ROOT Hips
{
	OFFSET 0.00000 0.00000 0.00000
	CHANNELS 6 Xposition Yposition Zposition Zrotation Yrotation Xrotation 
	JOINT LHipJoint
	{
		OFFSET 0 0 0
		CHANNELS 3 Zrotation Yrotation Xrotation
		JOINT LeftHip
		{
			OFFSET 1.57093 -1.69714 0.87455
			CHANNELS 3 Zrotation Yrotation Xrotation
			JOINT LeftKnee
			{
				OFFSET 2.48056 -6.81529 0.00000
				CHANNELS 3 Zrotation Yrotation Xrotation
				JOINT LeftAnkle
				{
					OFFSET 2.62558 -7.21374 0.00000
					CHANNELS 3 Zrotation Yrotation Xrotation
					JOINT LeftToe
					{
						OFFSET 0.17911 -0.49210 2.16707
						CHANNELS 3 Zrotation Yrotation Xrotation
						End Site
						{
							OFFSET 0.00000 -0.00000 1.11848
						}
					}
				}
			}
		}
	}
	JOINT RHipJoint
	{
		OFFSET 0 0 0
		CHANNELS 3 Zrotation Yrotation Xrotation
		JOINT RightHip
		{
			OFFSET -1.69739 -1.69715 0.87455
			CHANNELS 3 Zrotation Yrotation Xrotation
			JOINT RightKnee
			{
				OFFSET -2.33658 -6.41972 0.00000
				CHANNELS 3 Zrotation Yrotation Xrotation
				JOINT RightAnkle
				{
					OFFSET -2.60856 -7.16696 0.00000
					CHANNELS 3 Zrotation Yrotation Xrotation
					JOINT RightToe
					{
						OFFSET -0.20854 -0.57296 2.11053
						CHANNELS 3 Zrotation Yrotation Xrotation
						End Site
						{
							OFFSET -0.00000 -0.00000 1.09848
						}
					}
				}
			}
		}
	}
	JOINT lowerback
	{
		OFFSET 0 0 0
		CHANNELS 3 Zrotation Yrotation Xrotation
		JOINT Chest
		{
			OFFSET 0.02563 2.15732 -0.03270
			CHANNELS 3 Zrotation Yrotation Xrotation
			JOINT Chest2
			{
				OFFSET 0.00281 2.14662 0.09285
				CHANNELS 3 Zrotation Yrotation Xrotation
				JOINT lowerneck
				{
					OFFSET 0 0 0
					CHANNELS 3 Zrotation Yrotation Xrotation
					JOINT Neck
					{
						OFFSET -0.04440 1.68397 0.17601
						CHANNELS 3 Zrotation Yrotation Xrotation
						JOINT Head
						{
							OFFSET 0.06040 1.66995 -0.35615
							CHANNELS 3 Zrotation Yrotation Xrotation
							End Site
							{
								OFFSET 0.02405 1.72189 -0.14044
							}
						}
					}
				}
				JOINT LeftCollar
				{
					OFFSET 0 0 0
					CHANNELS 3 Zrotation Yrotation Xrotation
					JOINT LeftShoulder
					{
						OFFSET 2.98955 1.90907 -0.21660
CHANNELS 3 Zrotation Xrotation Yrotation
						JOINT LeftElbow
						{
OFFSET 0 -4.913770 0.000000
CHANNELS 3 Zrotation Xrotation Yrotation
							JOINT LeftWrist
							{
OFFSET 0 -3.002910 -0.000000
CHANNELS 3 Zrotation Xrotation Yrotation
								JOINT lhand
								{
									OFFSET 0 0 0
CHANNELS 3 Zrotation Xrotation Yrotation
									JOINT LFingers
									{
OFFSET 0 -0.450920 -0.000000
CHANNELS 3 Zrotation Xrotation Yrotation
										End Site
										{
OFFSET 0 -0.363550 -0.000000
										}
									}
								}
								JOINT LThumb
								{
OFFSET 0 0.000000 0.000000
CHANNELS 3 Zrotation Xrotation Yrotation
									End Site
									{
OFFSET 0 -0.369100 0.369100
									}
								}
							}
						}
					}
				}
				JOINT RightCollar
				{
					OFFSET 0 0 0
					CHANNELS 3 Zrotation Yrotation Xrotation
					JOINT RightShoulder
					{
						OFFSET -2.80452 1.90886 -0.21152
CHANNELS 3 Zrotation Xrotation Yrotation
						JOINT RightElbow
						{
OFFSET 0 -4.867250 0.000000
CHANNELS 3 Zrotation Xrotation Yrotation
							JOINT RightWrist
							{
OFFSET 0 -3.171440 -0.000000
CHANNELS 3 Zrotation Xrotation Yrotation
								JOINT rhand
								{
									OFFSET 0 0 0
CHANNELS 3 Zrotation Xrotation Yrotation
									JOINT RFingers
									{
OFFSET 0 -0.419370 -0.000000
CHANNELS 3 Zrotation Xrotation Yrotation
										End Site
										{
OFFSET 0 -0.338100 -0.000000
										}
									}
								}
								JOINT RThumb
								{
OFFSET 0 0.000000 0.000000
CHANNELS 3 Zrotation Xrotation Yrotation
									End Site
									{
OFFSET 0 -0.343270 0.343270
									}
								}
							}
						}
					}
				}
			}
		}
	}
}
MOTION
Frames: 10
Frame Time: 0.008333333333333333
7.729377 8.889645 12.234876 178.170160 2.913463 71.214598 0.000000 0.000000 0.000000 -25.965774 13.178921 34.771991 2.755959 10.288476 29.916691 0.394437 4.578495 11.179085 2.245014 9.358112 26.922478 0.000000 0.000000 0.000000 23.256818 -2.186896 27.001669 -1.061158 -6.549159 18.386380 0.478943 -12.184753 -3.584099 -1.302218 -7.229197 20.396294 10.876830 0.112649 31.435056 3.906956 5.328690 -1.550991 -3.848527 1.604264 -17.783467 1.089104 1.168828 -15.056187 -17.573890 5.728894 42.711340 -9.013454 -2.410369 20.173353 0.000000 0.000000 0.000000 133.792016 19.562710 0.532388 17.800423 -27.900775 4.455548 39.201437 -73.468939 -30.547018 0.000000 0.000000 0.000000 -7.125000 0.000000 0.000000 11.309938 66.955137 -6.062294 0.000000 0.000000 0.000000 -18.095589 18.042971 10.685600 -4.187301 -7.207725 -0.264123 0.187257 -2.354800 18.199835 0.000000 0.000000 0.000000 7.125000 0.000000 0.000000 26.424776 46.325681 -0.928333
7.691124 8.886378 12.255783 178.584646 2.609716 70.197860 0.000000 0.000000 0.000000 -25.185115 14.318900 34.807095 3.410493 11.330881 33.404955 0.462507 4.913398 12.109662 2.768034 10.309394 29.984821 0.000000 0.000000 0.000000 22.987654 -2.445196 29.250602 -0.925997 -6.130263 17.162862 0.558357 -13.123023 -4.067200 -1.357707 -7.375424 20.832637 11.816930 0.217214 32.692370 2.960693 5.825756 -1.756882 -5.650800 1.598078 -18.341184 3.754303 0.649404 -14.811611 -17.224020 3.938922 43.525803 -9.902371 -2.540034 20.521969 0.000000 0.000000 0.000000 130.273993 15.917059 1.564463 16.381588 -26.034515 3.812340 48.649256 -50.530191 -39.459123 0.000000 0.000000 0.000000 -7.125000 0.000000 0.000000 35.377873 79.475106 -28.853459 0.000000 0.000000 0.000000 -14.733014 13.337229 7.663266 -3.064237 -5.289792 -0.141623 -3.585558 -3.263529 18.021849 0.000000 0.000000 0.000000 7.125000 0.000000 0.000000 23.029499 46.647613 -0.987848
7.661410 8.862438 12.261518 179.026529 2.107237 69.877576 0.000000 0.000000 0.000000 -25.692216 13.604566 32.977230 3.819701 11.916534 35.437442 0.396768 4.841977 11.224789 2.845642 10.440828 30.416368 0.000000 0.000000 0.000000 22.368818 -2.815667 31.569428 -0.978605 -6.297213 17.649276 0.534948 -12.843652 -4.121390 -1.790940 -8.415730 23.984434 12.258872 0.712413 33.225607 2.242457 6.571269 -1.846362 -7.027249 1.796271 -18.429488 5.378891 0.069021 -15.184303 -16.497041 2.243365 44.517370 -10.374098 -2.760282 20.950382 0.000000 0.000000 0.000000 125.346541 13.401005 5.099555 14.939694 -24.061828 3.201453 43.501339 -37.534577 -49.893805 0.000000 0.000000 0.000000 -7.125000 0.000000 0.000000 -12.161980 88.437040 12.001963 0.000000 0.000000 0.000000 -12.835743 8.768643 4.486870 -2.543145 -4.394712 -0.097620 -3.781512 -4.065910 17.559880 0.000000 0.000000 0.000000 7.125000 0.000000 0.000000 22.658425 46.247218 -0.734837
7.635712 8.817460 12.250634 179.522831 1.520097 70.219974 0.000000 0.000000 0.000000 -27.280634 11.202303 29.957119 3.826357 11.925629 35.469589 0.211985 4.554476 8.302217 2.347777 9.554786 27.547481 0.000000 0.000000 0.000000 21.498333 -3.366958 33.961590 -1.156535 -6.827648 19.205731 0.393485 -11.103975 -2.783884 -1.745834 -8.315154 23.675597 12.483954 1.441888 33.166517 1.689183 7.479879 -1.852154 -8.138217 2.142579 -18.130182 5.696226 -0.531906 -16.571232 -15.248044 0.708278 45.799833 -10.449410 -3.038792 22.069859 0.000000 0.000000 0.000000 118.949679 11.592439 9.509595 14.231511 -23.064660 2.918197 27.778423 -35.733591 -59.132140 0.000000 0.000000 0.000000 -7.125000 0.000000 0.000000 -97.271554 -81.283670 -106.103975 0.000000 0.000000 0.000000 -12.266493 3.806360 1.183771 -2.134001 -3.690263 -0.068746 -3.547206 -4.151763 17.331677 0.000000 0.000000 0.000000 7.125000 0.000000 0.000000 22.769392 46.007450 -0.597060
7.596525 8.790672 12.264500 179.827449 1.224526 71.394890 0.000000 0.000000 0.000000 -28.584624 8.147525 26.440502 3.454422 11.396016 33.628341 0.016190 5.747714 4.479987 1.711380 8.235761 23.433218 0.000000 0.000000 0.000000 20.750004 -3.918836 36.573418 -1.251094 -7.091389 19.986414 0.189586 -8.343227 0.406502 -1.735639 -8.291880 23.604397 13.225969 2.046861 32.170173 0.984399 8.248491 -1.630492 -9.517777 2.499137 -17.022217 5.377136 -1.049134 -19.251474 -13.936717 -0.486583 46.669673 -10.347374 -3.158104 23.627010 0.000000 0.000000 0.000000 113.386414 10.966871 10.438628 13.702772 -22.308034 2.714353 -11.323576 -54.873408 -62.578086 0.000000 0.000000 0.000000 -7.125000 0.000000 0.000000 -80.725982 -68.606209 -102.711911 0.000000 0.000000 0.000000 -12.658270 -2.033073 -1.870394 -1.862984 -3.222861 -0.052402 -3.222901 -4.266408 16.753373 0.000000 0.000000 0.000000 7.125000 0.000000 0.000000 22.814972 45.435001 -0.258403
7.540684 8.823996 12.354571 179.657830 1.137076 73.955994 0.000000 0.000000 0.000000 -29.071391 5.568240 22.607290 2.755938 10.288158 29.915882 -0.217557 9.218321 1.059849 1.204741 6.962093 19.603817 0.000000 0.000000 0.000000 19.945645 -4.039404 37.950406 -1.215943 -6.994729 19.699705 0.004913 -4.741944 3.154813 -2.005513 -8.877506 25.412896 14.246701 2.862693 29.616728 0.381917 9.105749 -0.812865 -10.694063 3.143593 -14.392831 4.085591 -1.614661 -24.440841 -12.861555 -0.931469 46.410208 -9.963441 -2.943850 25.640709 0.000000 0.000000 0.000000 108.557998 11.519618 6.327180 12.940507 -21.199959 2.431710 -47.944497 -70.641493 -49.143861 0.000000 0.000000 0.000000 -7.125000 0.000000 0.000000 -94.966192 55.547927 52.929796 0.000000 0.000000 0.000000 -14.768198 -8.844091 -5.209434 -2.301440 -3.978662 -0.080075 -0.997395 -6.509711 16.423926 0.000000 0.000000 0.000000 7.125000 0.000000 0.000000 24.613473 44.868617 0.085248
7.485317 8.874453 12.424290 179.268134 1.283458 76.215061 0.000000 0.000000 0.000000 -29.169269 3.821990 20.127039 2.051637 8.972190 25.708906 -0.692587 14.795032 -2.579783 0.566489 4.815863 13.384905 0.000000 0.000000 0.000000 19.073548 -4.283531 37.796828 -1.224863 -7.019354 19.772622 -0.129833 -2.404028 6.397350 -1.897461 -8.649237 24.704062 15.377418 3.796219 27.445189 0.242815 10.249555 -0.178756 -11.442137 3.913707 -12.117467 0.956812 -2.497586 -28.436377 -11.283086 -1.116790 46.744431 -8.954281 -3.070295 28.200459 0.000000 0.000000 0.000000 104.204215 12.384836 -4.522179 12.918445 -21.167532 2.423726 -64.977777 -68.174948 -27.870445 0.000000 0.000000 0.000000 -7.125000 0.000000 0.000000 -67.124808 42.917553 -6.926871 0.000000 0.000000 0.000000 -18.803001 -13.548330 -8.750486 -3.489480 -6.017894 -0.183563 2.726102 -8.133000 16.705053 0.000000 0.000000 0.000000 7.125000 0.000000 0.000000 27.920438 44.681941 0.238688
7.448930 8.894691 12.409558 179.100730 1.339010 76.896521 0.000000 0.000000 0.000000 -29.809589 2.612313 20.226590 1.590736 7.955574 22.579287 -1.270440 19.498666 -6.292765 0.112128 2.137675 5.887071 0.000000 0.000000 0.000000 18.170359 -4.907251 36.352449 -1.358047 -7.376365 20.835405 -0.147897 -2.707417 6.832251 -2.017413 -8.902269 25.489996 16.551351 4.126269 27.166918 -0.228297 10.961468 0.387901 -12.614467 4.401113 -10.849466 -1.576811 -3.243834 -30.880934 -9.643989 -1.487360 47.341317 -8.027644 -3.297526 30.723123 0.000000 0.000000 0.000000 101.143190 13.188009 -16.164708 13.348723 -21.795983 2.581411 -76.407725 -57.708492 -10.705605 0.000000 0.000000 0.000000 -7.125000 0.000000 0.000000 -42.940012 -6.714881 -71.934630 0.000000 0.000000 0.000000 -23.083029 -18.006835 -12.099983 -3.982955 -6.860126 -0.238824 4.623561 -7.963331 16.953497 0.000000 0.000000 0.000000 7.125000 0.000000 0.000000 29.634094 44.674867 0.261718
7.442138 8.881428 12.368681 179.228190 1.740279 78.212472 0.000000 0.000000 0.000000 -29.916063 1.828769 19.752169 1.534814 7.821313 22.172632 -1.164551 18.683139 -6.763898 0.009200 0.616476 1.694154 0.000000 0.000000 0.000000 18.536129 -4.743829 31.880245 -1.488301 -7.707062 21.827856 -0.063461 -3.530710 4.776425 -1.846691 -8.538419 24.362137 17.907817 4.305099 26.550406 -0.931971 11.450431 0.585372 -14.057040 4.735050 -9.801270 -3.124122 -3.792613 -32.570824 -7.919781 -2.164038 47.490487 -7.015087 -3.486447 32.346579 0.000000 0.000000 0.000000 98.581723 13.754829 -27.777149 14.183162 -22.995720 2.899373 -83.476973 -46.550164 -3.247900 0.000000 0.000000 0.000000 -7.125000 0.000000 0.000000 -50.610465 -33.889421 -90.851741 0.000000 0.000000 0.000000 -27.420651 -22.187119 -15.626172 -4.189970 -7.212430 -0.264153 5.193723 -6.417527 17.251239 0.000000 0.000000 0.000000 7.125000 0.000000 0.000000 30.253251 44.865994 0.110525
7.460714 8.865848 12.302517 179.440736 2.212402 79.435760 0.000000 0.000000 0.000000 -29.966273 1.512956 19.809191 1.770815 8.371227 23.847509 -0.631653 13.910105 -4.903662 0.062267 1.599196 4.399551 0.000000 0.000000 0.000000 20.091807 -3.216244 26.575427 -1.572176 -7.911464 22.445567 0.041816 -5.021770 1.867127 -1.591725 -7.958233 22.587422 18.998729 4.527930 26.073622 -1.633236 11.958629 0.441107 -15.426398 5.006659 -9.218216 -4.313643 -4.296805 -33.021846 -6.168991 -3.191579 47.786234 -5.982184 -3.845561 33.147475 0.000000 0.000000 0.000000 96.371185 13.878215 -39.834344 15.407438 -24.710393 3.394570 -85.373690 -39.019467 -1.411313 0.000000 0.000000 0.000000 -7.125000 0.000000 0.000000 -58.526874 -42.426313 -101.891913 0.000000 0.000000 0.000000 -32.243347 -26.192895 -19.461924 -3.798234 -6.545244 -0.217314 5.171072 -3.589264 17.250944 0.000000 0.000000 0.000000 7.125000 0.000000 0.000000 30.234131 44.868517 0.108455
